<svg width="20" height="20" viewBox="0 0 20 20" fill="none" xmlns="http://www.w3.org/2000/svg">
<path d="M16.6668 18.333H15.0002V16.6663C15.0002 16.0033 14.7368 15.3674 14.2679 14.8986C13.7991 14.4297 13.1632 14.1663 12.5002 14.1663H7.50016C6.83712 14.1663 6.20124 14.4297 5.7324 14.8986C5.26355 15.3674 5.00016 16.0033 5.00016 16.6663V18.333H3.3335V16.6663C3.3335 15.5613 3.77248 14.5015 4.55388 13.7201C5.33529 12.9387 6.39509 12.4997 7.50016 12.4997H12.5002C13.6052 12.4997 14.665 12.9387 15.4464 13.7201C16.2278 14.5015 16.6668 15.5613 16.6668 16.6663V18.333ZM10.0002 10.833C9.34355 10.833 8.69337 10.7037 8.08675 10.4524C7.48012 10.2011 6.92892 9.83283 6.46463 9.36854C6.00034 8.90425 5.63204 8.35305 5.38076 7.74642C5.12949 7.1398 5.00016 6.48962 5.00016 5.83301C5.00016 5.1764 5.12949 4.52622 5.38076 3.91959C5.63204 3.31296 6.00034 2.76177 6.46463 2.29747C6.92892 1.83318 7.48012 1.46488 8.08675 1.21361C8.69337 0.962337 9.34355 0.833008 10.0002 0.833008C11.3262 0.833008 12.598 1.35979 13.5357 2.29747C14.4734 3.23516 15.0002 4.50693 15.0002 5.83301C15.0002 7.15909 14.4734 8.43086 13.5357 9.36854C12.598 10.3062 11.3262 10.833 10.0002 10.833ZM10.0002 9.16634C10.8842 9.16634 11.7321 8.81515 12.3572 8.19003C12.9823 7.56491 13.3335 6.71706 13.3335 5.83301C13.3335 4.94895 12.9823 4.10111 12.3572 3.47599C11.7321 2.85086 10.8842 2.49967 10.0002 2.49967C9.11611 2.49967 8.26826 2.85086 7.64314 3.47599C7.01802 4.10111 6.66683 4.94895 6.66683 5.83301C6.66683 6.71706 7.01802 7.56491 7.64314 8.19003C8.26826 8.81515 9.11611 9.16634 10.0002 9.16634Z" fill="#B3B3B3"/>
</svg>
