<svg width="98" height="98" viewBox="0 0 98 98" fill="none" xmlns="http://www.w3.org/2000/svg">
<rect opacity="0.2" width="47.6144" height="47.6144" transform="matrix(0.866025 -0.5 0.866025 0.5 7.5 73)" fill="url(#paint0_linear_190_1542)"/>
<rect opacity="0.2" width="47.6144" height="47.6144" transform="matrix(0.866025 -0.5 2.20305e-08 1 7.5 24.999)" fill="url(#paint1_linear_190_1542)"/>
<rect width="47.6144" height="1" transform="matrix(0.866025 0.5 -2.20305e-08 1 7.5 73.001)" fill="#235FDC"/>
<rect width="47.6144" height="1" transform="matrix(0.866025 0.5 -2.20305e-08 1 48.5 0.191406)" fill="#235FDC"/>
<rect width="47.6144" height="1" transform="matrix(0.866025 -0.5 2.20305e-08 1 48.6221 96.8076)" fill="#235FDC"/>
<rect width="47.6144" height="1" transform="matrix(0.866025 -0.5 2.20305e-08 1 7.62207 24.0059)" fill="#235FDC"/>
<circle cx="7.5" cy="73.1904" r="1" fill="#235FDC"/>
<circle cx="7.5" cy="24.1914" r="1" fill="#235FDC"/>
<circle cx="90.5" cy="73.1904" r="1" fill="#235FDC"/>
<circle cx="90.5" cy="25.1904" r="1" fill="#235FDC"/>
<line x1="7.75" y1="25.1904" x2="7.75" y2="72.1904" stroke="#235FDC" stroke-width="0.5" stroke-dasharray="2 2"/>
<line x1="90.75" y1="25.1904" x2="90.75" y2="72.1904" stroke="#235FDC" stroke-width="0.5" stroke-dasharray="2 2"/>
<g clip-path="url(#clip0_190_1542)">
<path d="M66.5 30.1914H30.5V66.1914H66.5V30.1914Z" fill="white" fill-opacity="0.01"/>
<path fill-rule="evenodd" clip-rule="evenodd" d="M35 41.4414H62L60.5 61.6914H36.5L35 41.4414Z" fill="url(#paint2_linear_190_1542)" stroke="#235FDC" stroke-linejoin="round"/>
<path d="M42.5 44.4414V34.6914H54.5V44.4414" stroke="#235FDC" stroke-linecap="round" stroke-linejoin="round"/>
<path d="M42.5 55.6914H54.5" stroke="white" stroke-width="2" stroke-linecap="round"/>
</g>
<defs>
<linearGradient id="paint0_linear_190_1542" x1="23.8072" y1="0" x2="21.3235" y2="46.3321" gradientUnits="userSpaceOnUse">
<stop stop-color="#235FDC"/>
<stop offset="1" stop-color="#235FDC" stop-opacity="0"/>
</linearGradient>
<linearGradient id="paint1_linear_190_1542" x1="23.8072" y1="0" x2="21.3235" y2="46.3321" gradientUnits="userSpaceOnUse">
<stop stop-color="#235FDC"/>
<stop offset="1" stop-color="#235FDC" stop-opacity="0"/>
</linearGradient>
<linearGradient id="paint2_linear_190_1542" x1="48.5" y1="41.4414" x2="48.5" y2="61.6914" gradientUnits="userSpaceOnUse">
<stop stop-color="#235FDC"/>
<stop offset="1" stop-color="#EDF3FF"/>
</linearGradient>
<clipPath id="clip0_190_1542">
<rect width="36" height="36" fill="white" transform="translate(30.5 30.1914)"/>
</clipPath>
</defs>
</svg>
