<svg width="98" height="98" viewBox="0 0 98 98" fill="none" xmlns="http://www.w3.org/2000/svg">
<rect opacity="0.2" width="47.6144" height="47.6144" transform="matrix(0.866025 -0.5 0.866025 0.5 7.5 73)" fill="url(#paint0_linear_190_1545)"/>
<rect opacity="0.2" width="47.6144" height="47.6144" transform="matrix(0.866025 -0.5 2.20305e-08 1 7.5 24.999)" fill="url(#paint1_linear_190_1545)"/>
<rect width="47.6144" height="1" transform="matrix(0.866025 0.5 -2.20305e-08 1 7.5 73.001)" fill="#235FDC"/>
<rect width="47.6144" height="1" transform="matrix(0.866025 0.5 -2.20305e-08 1 48.5 0.191406)" fill="#235FDC"/>
<rect width="47.6144" height="1" transform="matrix(0.866025 -0.5 2.20305e-08 1 48.6221 96.8076)" fill="#235FDC"/>
<rect width="47.6144" height="1" transform="matrix(0.866025 -0.5 2.20305e-08 1 7.62207 24.0059)" fill="#235FDC"/>
<circle cx="7.5" cy="73.1904" r="1" fill="#235FDC"/>
<circle cx="7.5" cy="25.1904" r="1" fill="#235FDC"/>
<circle cx="90.5" cy="73.1904" r="1" fill="#235FDC"/>
<circle cx="90.5" cy="25.1904" r="1" fill="#235FDC"/>
<line x1="7.75" y1="25.1904" x2="7.75" y2="72.1904" stroke="#235FDC" stroke-width="0.5" stroke-dasharray="2 2"/>
<line x1="90.75" y1="25.1904" x2="90.75" y2="72.1904" stroke="#235FDC" stroke-width="0.5" stroke-dasharray="2 2"/>
<path d="M60.75 34.6914H38.25C37.0074 34.6914 36 35.6988 36 36.9414V59.4414C36 60.6841 37.0074 61.6914 38.25 61.6914H60.75C61.9927 61.6914 63 60.6841 63 59.4414V36.9414C63 35.6988 61.9927 34.6914 60.75 34.6914Z" fill="url(#paint2_linear_190_1545)" stroke="#235FDC" stroke-linejoin="round"/>
<path d="M47.25 53.4414L51 56.4414L57 48.9414" stroke="white" stroke-width="2" stroke-linecap="round" stroke-linejoin="round"/>
<path d="M42 41.4414H57" stroke="white" stroke-width="2" stroke-linecap="round" stroke-linejoin="round"/>
<path d="M42 47.4414H48" stroke="white" stroke-width="2" stroke-linecap="round" stroke-linejoin="round"/>
<defs>
<linearGradient id="paint0_linear_190_1545" x1="23.8072" y1="0" x2="21.3235" y2="46.3321" gradientUnits="userSpaceOnUse">
<stop stop-color="#235FDC"/>
<stop offset="1" stop-color="#235FDC" stop-opacity="0"/>
</linearGradient>
<linearGradient id="paint1_linear_190_1545" x1="23.8072" y1="0" x2="21.3235" y2="46.3321" gradientUnits="userSpaceOnUse">
<stop stop-color="#235FDC"/>
<stop offset="1" stop-color="#235FDC" stop-opacity="0"/>
</linearGradient>
<linearGradient id="paint2_linear_190_1545" x1="49.5" y1="34.6914" x2="49.5" y2="61.6914" gradientUnits="userSpaceOnUse">
<stop stop-color="#235FDC"/>
<stop offset="1" stop-color="#EDF3FF"/>
</linearGradient>
</defs>
</svg>
