<svg width="98" height="98" viewBox="0 0 98 98" fill="none" xmlns="http://www.w3.org/2000/svg">
<rect opacity="0.2" width="47.6144" height="47.6144" transform="matrix(0.866025 -0.5 0.866025 0.5 7.5 73)" fill="url(#paint0_linear_190_1544)"/>
<rect opacity="0.2" width="47.6144" height="47.6144" transform="matrix(0.866025 -0.5 2.20305e-08 1 7.5 24.999)" fill="url(#paint1_linear_190_1544)"/>
<rect width="47.6144" height="1" transform="matrix(0.866025 0.5 -2.20305e-08 1 7.5 73.001)" fill="#235FDC"/>
<rect width="47.6144" height="1" transform="matrix(0.866025 0.5 -2.20305e-08 1 48.5 0.191406)" fill="#235FDC"/>
<rect width="47.6144" height="1" transform="matrix(0.866025 -0.5 2.20305e-08 1 48.6221 96.8076)" fill="#235FDC"/>
<rect width="47.6144" height="1" transform="matrix(0.866025 -0.5 2.20305e-08 1 7.62207 24.0059)" fill="#235FDC"/>
<circle cx="7.5" cy="73.1904" r="1" fill="#235FDC"/>
<circle cx="7.5" cy="25.1904" r="1" fill="#235FDC"/>
<circle cx="90.5" cy="73.1904" r="1" fill="#235FDC"/>
<circle cx="90.5" cy="25.1904" r="1" fill="#235FDC"/>
<line x1="7.75" y1="25.1904" x2="7.75" y2="72.1904" stroke="#235FDC" stroke-width="0.5" stroke-dasharray="2 2"/>
<line x1="90.75" y1="25.1904" x2="90.75" y2="72.1904" stroke="#235FDC" stroke-width="0.5" stroke-dasharray="2 2"/>
<path d="M58.25 36.1914H38.75C37.9216 36.1914 37.25 36.863 37.25 37.6914V61.6914C37.25 62.5198 37.9216 63.1914 38.75 63.1914H58.25C59.0784 63.1914 59.75 62.5198 59.75 61.6914V37.6914C59.75 36.863 59.0784 36.1914 58.25 36.1914Z" fill="url(#paint2_linear_190_1544)" stroke="#235FDC" stroke-linejoin="round"/>
<path d="M44 33.1914V37.6914" stroke="#235FDC" stroke-width="2" stroke-linecap="round" stroke-linejoin="round"/>
<path d="M53 33.1914V37.6914" stroke="#235FDC" stroke-width="2" stroke-linecap="round" stroke-linejoin="round"/>
<path d="M42.5 44.4414H54.5" stroke="white" stroke-width="2" stroke-linecap="round" stroke-linejoin="round"/>
<path d="M42.5 50.4414H51.5" stroke="white" stroke-width="2" stroke-linecap="round" stroke-linejoin="round"/>
<path d="M42.5 56.4414H48.5" stroke="white" stroke-width="2" stroke-linecap="round" stroke-linejoin="round"/>
<defs>
<linearGradient id="paint0_linear_190_1544" x1="23.8072" y1="0" x2="21.3235" y2="46.3321" gradientUnits="userSpaceOnUse">
<stop stop-color="#235FDC"/>
<stop offset="1" stop-color="#235FDC" stop-opacity="0"/>
</linearGradient>
<linearGradient id="paint1_linear_190_1544" x1="23.8072" y1="0" x2="21.3235" y2="46.3321" gradientUnits="userSpaceOnUse">
<stop stop-color="#235FDC"/>
<stop offset="1" stop-color="#235FDC" stop-opacity="0"/>
</linearGradient>
<linearGradient id="paint2_linear_190_1544" x1="48.5" y1="36.1914" x2="48.5" y2="63.1914" gradientUnits="userSpaceOnUse">
<stop stop-color="#235FDC"/>
<stop offset="1" stop-color="#EDF3FF"/>
</linearGradient>
</defs>
</svg>
