<svg width="42" height="42" viewBox="0 0 42 42" fill="none" xmlns="http://www.w3.org/2000/svg">
<path d="M41.8922 16.0384C42.34 17.7319 39.5855 20.069 34.9637 22.3384C39.0701 20.1706 41.4613 17.9351 41.0135 16.267C40.4981 14.3025 31.1108 15.0984 20.0505 18.0452C8.9902 20.992 0.430939 24.9549 0.954803 26.9279C1.39417 28.6214 4.5965 29.3581 9.26903 29.1803C4.09799 29.519 0.532331 28.8585 0.0760624 27.1565C-0.380206 25.4545 2.30671 23.1767 6.8356 20.9327C10.9249 18.9832 15.1918 17.4321 19.5773 16.3009C23.9623 15.0989 28.4529 14.3248 32.9865 13.9892C37.9717 13.7013 41.4106 14.3448 41.8922 16.0384Z" fill="#C7C8C8"/>
<path d="M25.7115 41.949C24.0217 42.3978 21.6896 39.6458 19.4252 35.0055C21.5798 39.1293 23.8189 41.5172 25.4834 41.0769C27.4437 40.5942 26.6832 31.1442 23.709 20.0599C20.7348 8.97565 16.8143 0.406293 14.854 0.922826C13.1642 1.37162 12.4291 4.58089 12.6065 9.26355C12.2516 4.08129 12.9191 0.499438 14.6175 0.0506481C16.3158 -0.398142 18.5887 2.28613 20.8278 6.82484C22.7679 10.9281 24.3155 15.2066 25.4496 19.6027C26.6489 23.9943 27.4214 28.4918 27.7563 33.0325C28.052 38.0539 27.3761 41.5087 25.7115 41.949Z" fill="#C7C8C8"/>
<path d="M24.571 14.5134C26.9449 14.0446 29.3424 13.7054 31.753 13.4973C30.6432 11.8878 29.1905 10.5454 27.4998 9.56719C25.8092 8.58897 23.9228 7.99931 21.9771 7.84082C22.9553 10.019 23.8211 12.2461 24.571 14.5134Z" fill="#E62310"/>
<path d="M19.3997 15.7164C20.1517 15.5132 20.9037 15.3269 21.6473 15.1576C20.7685 12.2785 19.856 9.88215 19.0787 7.93457C16.1433 8.35224 13.4341 9.74949 11.3889 11.9006C9.34364 14.0517 8.08177 16.8309 7.80713 19.7894C11.5546 18.1186 15.4316 16.7564 19.3997 15.7164Z" fill="#1863BC"/>
<path d="M25.686 33.2956C25.1639 28.8809 24.3167 24.5109 23.1512 20.2215C22.9568 19.4848 22.754 18.765 22.5513 18.0537C21.7824 18.24 20.9966 18.4348 20.2023 18.6465C15.9911 19.7484 11.8607 21.1404 7.84082 22.8126C8.10941 24.7911 8.82319 26.6825 9.92823 28.344C11.0333 30.0055 12.5007 31.3936 14.2195 32.4033C15.9384 33.413 17.8638 34.0181 19.8502 34.1727C21.8367 34.3272 23.8322 34.0274 25.686 33.2956Z" fill="#E62310"/>
<path d="M25.458 17.3756C25.6608 18.0531 25.8551 18.739 26.041 19.4418C27.1453 23.533 27.8973 27.7116 28.2886 31.9317C30.0717 30.7227 31.5318 29.094 32.5409 27.1881C33.5499 25.2822 34.0772 23.1574 34.0764 20.9998C34.0761 19.3129 33.749 17.6421 33.1132 16.0801C30.9079 16.3341 28.2717 16.7744 25.458 17.3756Z" fill="#1863BC"/>
</svg>
