<svg width="90" height="92" viewBox="0 0 90 92" fill="none" xmlns="http://www.w3.org/2000/svg">
<path opacity="0.1" d="M8.73626 32L1 39V92H89V32L81.2637 39L68.6923 26L60.956 32L51.2857 26L39.6813 32L30.011 26L17.4396 39L8.73626 32Z" fill="url(#paint0_linear_63_418)"/>
<path d="M1 39L7.47078 33.145C8.19977 32.4854 9.30005 32.4535 10.0661 33.0696L16.0172 37.856C16.8229 38.504 17.9897 38.4311 18.7084 37.6879L28.8896 27.1596C29.544 26.4829 30.5818 26.3542 31.3817 26.8505L38.7167 31.4015C39.315 31.7727 40.0643 31.802 40.6897 31.4786L50.2773 26.5214C50.9027 26.198 51.6521 26.2273 52.2503 26.5985L59.7746 31.267C60.4848 31.7076 61.3942 31.6602 62.0547 31.1479L67.2754 27.0989C68.0817 26.4736 69.2295 26.5555 69.9388 27.289L79.9188 37.6092C80.6687 38.3847 81.8985 38.4257 82.6984 37.7019L89 32" stroke="#184DBC" stroke-width="2"/>
<line x1="44.5" y1="2.18557e-08" x2="44.5" y2="87" stroke="#D7D7D7" stroke-dasharray="4 4"/>
<defs>
<linearGradient id="paint0_linear_63_418" x1="45" y1="26" x2="45" y2="92" gradientUnits="userSpaceOnUse">
<stop stop-color="#184DBC"/>
<stop offset="1" stop-color="#184DBC" stop-opacity="0"/>
</linearGradient>
</defs>
</svg>
