<svg width="16" height="16" viewBox="0 0 16 16" xmlns="http://www.w3.org/2000/svg">
<path d="M7.3335 1.33301C10.6455 1.33301 13.3335 4.02101 13.3335 7.33301C13.3335 10.645 10.6455 13.333 7.3335 13.333C4.0215 13.333 1.3335 10.645 1.3335 7.33301C1.3335 4.02101 4.0215 1.33301 7.3335 1.33301ZM7.3335 11.9997C9.9115 11.9997 12.0002 9.91101 12.0002 7.33301C12.0002 4.75434 9.9115 2.66634 7.3335 2.66634C4.75483 2.66634 2.66683 4.75434 2.66683 7.33301C2.66683 9.91101 4.75483 11.9997 7.3335 11.9997ZM12.9902 12.047L14.8762 13.9323L13.9328 14.8757L12.0475 12.9897L12.9902 12.047V12.047Z"/>
</svg>
