<svg width="18" height="18" viewBox="0 0 18 18" xmlns="http://www.w3.org/2000/svg">
<path d="M6.44625 9.609C6.35115 9.20882 6.35115 8.79193 6.44625 8.39175L5.70225 7.962L6.45225 6.663L7.19625 7.09275C7.49487 6.80991 7.85585 6.60129 8.25 6.48375V5.625H9.75V6.48375C10.149 6.60225 10.509 6.81375 10.8037 7.09275L11.5478 6.663L12.2977 7.962L11.5537 8.39175C11.6487 8.79169 11.6487 9.20831 11.5537 9.60825L12.2977 10.038L11.5478 11.337L10.8037 10.9073C10.5051 11.1901 10.1442 11.3987 9.75 11.5162V12.375H8.25V11.5162C7.85585 11.3987 7.49487 11.1901 7.19625 10.9073L6.45225 11.337L5.70225 10.038L6.44625 9.609V9.609ZM9 10.125C9.29837 10.125 9.58452 10.0065 9.7955 9.7955C10.0065 9.58452 10.125 9.29837 10.125 9C10.125 8.70163 10.0065 8.41548 9.7955 8.2045C9.58452 7.99353 9.29837 7.875 9 7.875C8.70163 7.875 8.41548 7.99353 8.2045 8.2045C7.99353 8.41548 7.875 8.70163 7.875 9C7.875 9.29837 7.99353 9.58452 8.2045 9.7955C8.41548 10.0065 8.70163 10.125 9 10.125ZM11.25 3H3.75V15H14.25V6H11.25V3ZM2.25 2.244C2.25 1.833 2.58525 1.5 2.99925 1.5H12L15.75 5.25V15.7448C15.7507 15.8432 15.732 15.9409 15.6949 16.0322C15.6579 16.1234 15.6032 16.2065 15.534 16.2766C15.4649 16.3468 15.3826 16.4026 15.2919 16.4409C15.2011 16.4792 15.1037 16.4993 15.0052 16.5H2.99475C2.79778 16.4986 2.60926 16.4198 2.46991 16.2806C2.33056 16.1414 2.25157 15.953 2.25 15.756V2.244Z" />
</svg>
